<svg xmlns="http://www.w3.org/2000/svg" width="1200px" height="800px" style="fill-rule: evenodd" viewBox="0 0 18000 12000" xmlns:xlink="http://www.w3.org/1999/xlink">
 <rect fill="#0051BA" width="18000" height="12000"/>
<g fill="#fff">
  <path id="1" d="M18000 9667l0 300c-90,10 -180,20 -300,20 -900,0 -2000,-800 -2900,-800 -900,0 -2000,800 -2900,800 -900,0 -2000,-800 -2900,-800 -900,0 -2000,800 -2900,800 -900,0 -2000,-800 -2900,-800 -900,0 -2000,800 -2900,800 -120,0 -210,-10 -300,-10l0 -300c90,10 180,20 300,20 900,0 2000,-800 2900,-800 900,0 2000,800 2900,800 900,0 2000,-800 2900,-800 900,0 2000,800 2900,800 900,0 2000,-800 2900,-800 900,0 2000,800 2900,800 120,0 210,-10 300,-10z"/>
<use xlink:href="#1" transform="translate(0,638)"/>
<use xlink:href="#1" transform="translate(0,1276)"/>
  <path id="2" d="M9000 2910c300,0 555,780 555,1750 0,965 -250,1750 -555,1750 -300,0 -555,-780 -555,-1750 0,-965 250,-1750 555,-1750zm0 338c250,0 450,635 450,1420 0,780 -200,1420 -450,1420 -250,0 -450,-635 -450,-1420 0,-780 200,-1420 450,-1420z"/>
  <use xlink:href="#2" transform="rotate(90 9000 4650)"/>
  <use xlink:href="#2" transform="rotate(45 9000 4650)"/>
  <use xlink:href="#2" transform="rotate(135 9000 4650)"/>
  <circle cx="9000" cy="4650" r="325"/>
 <g id="left">
 <path d="M8673.22 7036.29c0,0 -86.6906,-76.2815 -165.379,-344.12 -57.5008,-193.696 -323.391,-259.658 -402.072,-359.525 -22.5319,108.906 -33.5941,379.743 284.483,603.77 -324.115,-155.287 -514.153,-135.386 -765.412,-48.3449 120.539,158.391 446.378,317.635 859.228,190.586 48.4205,-13.6134 99.874,-25.7185 189.152,-42.3661z"/>
 <path d="M7759.26 6501.81c307.607,34.6028 531.188,219.065 672.265,443.104 -396.455,-20.4933 -637.075,-220.716 -672.265,-443.104z"/>
 <path d="M7958.18 6672.86c0,0 -72.1524,-84.6874 -110.271,-350.935 -28.135,-192.627 -272.587,-292.17 -333.85,-398.246 -36.4949,100.746 -84.3732,357.481 188.057,614.943 -287.662,-192.746 -471.619,-199.962 -723.209,-151.593 93.111,167.648 381.874,364.41 793.064,300.162 48.0472,-6.30945 98.7803,-10.7598 186.209,-14.3303z"/>
 <path d="M7160.33 6037.22c288.555,75.3921 476.329,282.104 579.978,515.185 -375.222,-74.185 -577.074,-298.274 -579.978,-515.185z"/>
 <path d="M7361.42 6221.31c0,0 -38.0185,-90.3366 3.65433,-329.878 29.6764,-173.434 -151.381,-317.245 -174.137,-423.54 -59.2642,78.6402 -171.745,289.676 -10.8201,576.83 -191.979,-234.703 -347.105,-284.303 -575.5,-301.71 32.7933,167.119 224.594,405.556 593.748,446.825 42.802,5.86063 87.3791,13.9618 163.055,31.4728z"/>
 <path d="M6857.12 5482.86c225.464,133.289 328.228,356.544 351.776,582.807 -299.831,-152.668 -409.773,-394.289 -351.776,-582.807z"/>
 <path d="M6961.9 5644.03c0,0 -10.0335,-97.4988 99.6591,-314.486 78.9449,-157.252 -52.3264,-347.596 -43.1079,-455.908 -79.6146,57.9472 -248.728,227.029 -178.502,548.622 -115.222,-280.472 -249.152,-373.141 -462.553,-456.372 -17.3492,169.421 96.6142,453.415 437.705,600.503 39.235,18.0839 79.5154,38.8287 146.799,77.6409z"/>
 <path d="M6694.77 4790.64c176.816,193.225 210.035,436.741 166.603,660.04 -242.306,-233.44 -277.037,-496.617 -166.603,-660.04z"/>
 <path d="M6748 4968c0,0 1,-84 112,-270 80,-135 -10,-299 7,-392 -71,50 -227,195 -199,472 -69,-241 -170,-321 -339,-392 -30,146 37,390 304,516 31,16 62,33 114,67z"/>
 <path d="M6608.25 4233.68c127.633,166.166 132.065,375.578 75.1701,567.604 -177.863,-200.747 -181.688,-427.067 -75.1701,-567.604z"/>
 <path d="M6624.5 4399.63c0,0 15.2055,-78.0083 150.787,-230.93 97.8319,-110.911 41.4508,-280.704 74.0362,-364.172 -74.9858,32.9539 -245.088,139.01 -266.627,402.132 -22.8106,-237.935 -104.218,-331.57 -249.091,-430.258 -53.2264,130.101 -32.2157,370.599 196.033,539.359 25.9819,20.3232 52.1421,42.8988 94.8614,83.8689z"/>
 <path d="M6619.42 3688.75c90.802,179.189 59.1106,375.301 -26.8913,543.555 -131.809,-220.976 -96.6591,-432.741 26.8913,-543.555z"/>
 <path d="M6594.18 3805.4c0,0 47.4272,-58.2402 228.68,-120.653 131.039,-45.5102 159.596,-216.06 223.961,-270.393 -77.2571,-8.94685 -266.451,-2.88661 -401.598,208.116 86.9185,-211.498 60.6744,-330.17 -16.2874,-484.153 -102.358,83.4957 -191.92,296.27 -76.5768,550.05 12.6319,29.8252 24.4122,61.6335 41.8217,117.033z"/>
 <path d="M6906.5 3204.36c-4.01575,195.304 -117.795,344.917 -264.497,444.497 -11.6008,-250.552 112.036,-411.652 264.497,-444.497z"/>
 <path d="M6819.85 3321.72c0,0 64.9051,-37.4717 256.084,-31.3264 138.354,4.07953 225.533,-144.823 304.843,-172.639 -68.8677,-35.7709 -247.447,-97.2862 -448.385,51.4984 156.139,-166.368 173.797,-286.35 156.693,-457.265 -125.094,41.5228 -284.15,208.144 -266.685,485.748 1.19173,32.2972 0.883465,66.1429 -2.55,123.984z"/>
 <path d="M7324.47 2872.12c-73.0783,180.698 -232.297,279.823 -404.454,320.603 78.1335,-237.765 250.619,-344.101 404.454,-320.603z"/>
 <path d="M7210.86 2946.41c0,0 66.8894,-28.6228 250.463,-0.614173 132.891,19.9157 234.124,-113.544 313.786,-131.194 -62.25,-42.4346 -227.28,-122.36 -438.156,-2.15669 169.724,-142.328 200.604,-255.943 203.864,-422.666 -125.379,25.5744 -297.944,167.809 -313.179,437.414 -2.58189,31.2709 -6.7878,63.8587 -16.7787,119.217z"/>
 <path d="M7749.22 2571.33c-91.3157,165.737 -256.24,242.894 -426.896,262.315 102.78,-220.161 281.328,-302.734 426.896,-262.315z"/>
 <path d="M7668.63 2614.93c0,0 67.0618,-15.6768 233.576,40.6287 120.601,40.4256 236.923,-67.3311 314.086,-70.6807 -51.0496,-49.7965 -191.738,-151.448 -408.084,-74.0835 181.625,-104.756 229.098,-205.585 259.563,-360.464 -121.081,3.21496 -305.339,107.418 -363.888,356.231 -7.55079,28.7232 -16.8319,58.4091 -35.2524,108.369z"/>
 <path d="M8232.17 2353.84c-112.385,139.476 -278.815,184.27 -441.091,174.301 132.022,-188.321 312.043,-235.925 441.091,-174.301z"/>
 <path d="M8167.35 2375.13c0,0 65.0421,2.84409 202.235,96.587 99.4547,67.5732 232.828,-0.820866 303.918,15.8232 -33.7571,-58.3535 -135.87,-186.782 -352.533,-171.576 192.051,-48.998 260.994,-128.657 328.247,-261.854 -111.03,-27.9732 -305.334,19.8472 -422.125,231.377 -14.2016,24.2173 -30.2256,48.8693 -59.7425,89.6433z"/>
 <path d="M8746.91 2281.31c-137.888,98.2701 -300.804,96.5693 -445.964,46.0819 168.228,-137.719 344.231,-135.105 445.964,-46.0819z"/>
 </g>
 <use xlink:href="#left" transform="scale(-1,1) translate(-18000,0)"/>
</g>
</svg>